<mxfile host="app.diagrams.net" modified="2021-09-26T07:44:48.516Z" agent="5.0 (Macintosh)" etag="USzcQjcxXhG7P8ZSZa5x" version="15.3.3" type="github">
  <diagram id="X7heIwv5WM6i-sBmFB4s" name="Page-1">
    <mxGraphModel dx="119" dy="502" grid="1" gridSize="10" guides="1" tooltips="1" connect="1" arrows="1" fold="1" page="1" pageScale="1" pageWidth="827" pageHeight="1169" math="0" shadow="0">
      <root>
        <mxCell id="0" />
        <mxCell id="1" parent="0" />
        <mxCell id="I5j3_8j3GP6viw84mAff-1" value="公开课" style="ellipse;whiteSpace=wrap;html=1;shadow=0;fontFamily=Helvetica;fontSize=30;align=center;strokeColor=#6c8ebf;strokeWidth=6;fillColor=#dae8fc;fontStyle=1;" vertex="1" parent="1">
          <mxGeometry x="1300" y="780" width="160" height="156.5" as="geometry" />
        </mxCell>
        <mxCell id="I5j3_8j3GP6viw84mAff-2" value="邀课" style="ellipse;whiteSpace=wrap;html=1;shadow=0;fontFamily=Helvetica;fontSize=20;align=center;strokeWidth=3;fillColor=#dae8fc;strokeColor=#6c8ebf;" vertex="1" parent="1">
          <mxGeometry x="1120" y="818.25" width="100" height="100" as="geometry" />
        </mxCell>
        <mxCell id="I5j3_8j3GP6viw84mAff-3" value="营销课" style="ellipse;whiteSpace=wrap;html=1;shadow=0;fontFamily=Helvetica;fontSize=20;align=center;strokeWidth=3;fillColor=#dae8fc;strokeColor=#6c8ebf;" vertex="1" parent="1">
          <mxGeometry x="1170" y="920" width="100" height="100" as="geometry" />
        </mxCell>
        <mxCell id="I5j3_8j3GP6viw84mAff-4" value="开课" style="ellipse;whiteSpace=wrap;html=1;shadow=0;fontFamily=Helvetica;fontSize=20;align=center;strokeWidth=3;fillColor=#dae8fc;strokeColor=#6c8ebf;" vertex="1" parent="1">
          <mxGeometry x="1280" y="980" width="100" height="100" as="geometry" />
        </mxCell>
        <mxCell id="I5j3_8j3GP6viw84mAff-5" value="授课表" style="ellipse;whiteSpace=wrap;html=1;shadow=0;fontFamily=Helvetica;fontSize=20;align=center;strokeWidth=3;fillColor=#dae8fc;strokeColor=#6c8ebf;" vertex="1" parent="1">
          <mxGeometry x="1410" y="980" width="100" height="100" as="geometry" />
        </mxCell>
        <mxCell id="I5j3_8j3GP6viw84mAff-6" value="权限开通" style="ellipse;whiteSpace=wrap;html=1;shadow=0;fontFamily=Helvetica;fontSize=20;align=center;strokeWidth=3;fillColor=#dae8fc;strokeColor=#6c8ebf;" vertex="1" parent="1">
          <mxGeometry x="1520" y="910" width="100" height="100" as="geometry" />
        </mxCell>
        <mxCell id="I5j3_8j3GP6viw84mAff-7" value="" style="endArrow=none;html=1;entryX=0;entryY=0.5;entryDx=0;entryDy=0;exitX=1;exitY=0.5;exitDx=0;exitDy=0;fillColor=#dae8fc;strokeColor=#6c8ebf;" edge="1" parent="1" source="I5j3_8j3GP6viw84mAff-2" target="I5j3_8j3GP6viw84mAff-1">
          <mxGeometry width="50" height="50" relative="1" as="geometry">
            <mxPoint x="1250" y="930" as="sourcePoint" />
            <mxPoint x="1500" y="900" as="targetPoint" />
            <Array as="points" />
          </mxGeometry>
        </mxCell>
        <mxCell id="I5j3_8j3GP6viw84mAff-8" value="" style="endArrow=none;html=1;fillColor=#dae8fc;strokeColor=#6c8ebf;" edge="1" parent="1" source="I5j3_8j3GP6viw84mAff-3" target="I5j3_8j3GP6viw84mAff-1">
          <mxGeometry width="50" height="50" relative="1" as="geometry">
            <mxPoint x="1270" y="960" as="sourcePoint" />
            <mxPoint x="1320" y="910" as="targetPoint" />
            <Array as="points" />
          </mxGeometry>
        </mxCell>
        <mxCell id="I5j3_8j3GP6viw84mAff-9" value="" style="endArrow=none;html=1;entryX=0.5;entryY=1;entryDx=0;entryDy=0;fillColor=#dae8fc;strokeColor=#6c8ebf;" edge="1" parent="1" source="I5j3_8j3GP6viw84mAff-4" target="I5j3_8j3GP6viw84mAff-1">
          <mxGeometry width="50" height="50" relative="1" as="geometry">
            <mxPoint x="1330" y="985" as="sourcePoint" />
            <mxPoint x="1380" y="935" as="targetPoint" />
          </mxGeometry>
        </mxCell>
        <mxCell id="I5j3_8j3GP6viw84mAff-10" value="" style="endArrow=none;html=1;fillColor=#dae8fc;strokeColor=#6c8ebf;entryX=1;entryY=1;entryDx=0;entryDy=0;exitX=0.5;exitY=0;exitDx=0;exitDy=0;" edge="1" parent="1" source="I5j3_8j3GP6viw84mAff-5" target="I5j3_8j3GP6viw84mAff-1">
          <mxGeometry width="50" height="50" relative="1" as="geometry">
            <mxPoint x="1480" y="980" as="sourcePoint" />
            <mxPoint x="1530" y="930" as="targetPoint" />
          </mxGeometry>
        </mxCell>
        <mxCell id="I5j3_8j3GP6viw84mAff-11" value="" style="endArrow=none;html=1;fillColor=#dae8fc;strokeColor=#6c8ebf;entryX=1;entryY=0.5;entryDx=0;entryDy=0;exitX=0;exitY=0;exitDx=0;exitDy=0;" edge="1" parent="1" source="I5j3_8j3GP6viw84mAff-6" target="I5j3_8j3GP6viw84mAff-1">
          <mxGeometry width="50" height="50" relative="1" as="geometry">
            <mxPoint x="1490" y="990" as="sourcePoint" />
            <mxPoint x="1540" y="940" as="targetPoint" />
          </mxGeometry>
        </mxCell>
        <mxCell id="I5j3_8j3GP6viw84mAff-12" value="商品" style="ellipse;whiteSpace=wrap;html=1;shadow=0;fontFamily=Helvetica;fontSize=30;align=center;strokeColor=#82b366;strokeWidth=6;fillColor=#d5e8d4;fontStyle=1;" vertex="1" parent="1">
          <mxGeometry x="1450" y="550" width="140" height="136.5" as="geometry" />
        </mxCell>
        <mxCell id="I5j3_8j3GP6viw84mAff-13" value="课程" style="ellipse;whiteSpace=wrap;html=1;shadow=0;fontFamily=Helvetica;fontSize=20;align=center;strokeWidth=3;fillColor=#d5e8d4;strokeColor=#82b366;" vertex="1" parent="1">
          <mxGeometry x="1300" y="520" width="100" height="100" as="geometry" />
        </mxCell>
        <mxCell id="I5j3_8j3GP6viw84mAff-14" value="大纲" style="ellipse;whiteSpace=wrap;html=1;shadow=0;fontFamily=Helvetica;fontSize=20;align=center;strokeWidth=3;fillColor=#d5e8d4;strokeColor=#82b366;" vertex="1" parent="1">
          <mxGeometry x="1400" y="420" width="100" height="100" as="geometry" />
        </mxCell>
        <mxCell id="I5j3_8j3GP6viw84mAff-15" value="视频" style="ellipse;whiteSpace=wrap;html=1;shadow=0;fontFamily=Helvetica;fontSize=20;align=center;strokeWidth=3;fillColor=#d5e8d4;strokeColor=#82b366;" vertex="1" parent="1">
          <mxGeometry x="1540" y="410" width="100" height="100" as="geometry" />
        </mxCell>
        <mxCell id="I5j3_8j3GP6viw84mAff-16" value="剧本" style="ellipse;whiteSpace=wrap;html=1;shadow=0;fontFamily=Helvetica;fontSize=20;align=center;strokeWidth=3;fillColor=#d5e8d4;strokeColor=#82b366;" vertex="1" parent="1">
          <mxGeometry x="1634" y="520" width="100" height="100" as="geometry" />
        </mxCell>
        <mxCell id="I5j3_8j3GP6viw84mAff-17" value="" style="endArrow=none;html=1;entryX=0;entryY=1;entryDx=0;entryDy=0;exitX=0.5;exitY=0;exitDx=0;exitDy=0;fillColor=#d5e8d4;strokeColor=#82b366;" edge="1" parent="1" source="I5j3_8j3GP6viw84mAff-1" target="I5j3_8j3GP6viw84mAff-12">
          <mxGeometry width="50" height="50" relative="1" as="geometry">
            <mxPoint x="1380" y="780" as="sourcePoint" />
            <mxPoint x="1380" y="640" as="targetPoint" />
          </mxGeometry>
        </mxCell>
        <mxCell id="I5j3_8j3GP6viw84mAff-18" value="" style="endArrow=none;html=1;fillColor=#d5e8d4;strokeColor=#82b366;entryX=0.5;entryY=0;entryDx=0;entryDy=0;exitX=1;exitY=1;exitDx=0;exitDy=0;" edge="1" parent="1" source="I5j3_8j3GP6viw84mAff-14" target="I5j3_8j3GP6viw84mAff-12">
          <mxGeometry width="50" height="50" relative="1" as="geometry">
            <mxPoint x="1290" y="540" as="sourcePoint" />
            <mxPoint x="1340" y="490" as="targetPoint" />
          </mxGeometry>
        </mxCell>
        <mxCell id="I5j3_8j3GP6viw84mAff-19" value="" style="endArrow=none;html=1;fillColor=#d5e8d4;strokeColor=#82b366;entryX=1;entryY=0;entryDx=0;entryDy=0;exitX=0.5;exitY=1;exitDx=0;exitDy=0;" edge="1" parent="1" source="I5j3_8j3GP6viw84mAff-15" target="I5j3_8j3GP6viw84mAff-12">
          <mxGeometry width="50" height="50" relative="1" as="geometry">
            <mxPoint x="1300" y="550" as="sourcePoint" />
            <mxPoint x="1350" y="500" as="targetPoint" />
          </mxGeometry>
        </mxCell>
        <mxCell id="I5j3_8j3GP6viw84mAff-20" value="" style="endArrow=none;html=1;fillColor=#d5e8d4;strokeColor=#82b366;entryX=0;entryY=1;entryDx=0;entryDy=0;exitX=1;exitY=0.5;exitDx=0;exitDy=0;" edge="1" parent="1" source="I5j3_8j3GP6viw84mAff-12" target="I5j3_8j3GP6viw84mAff-16">
          <mxGeometry width="50" height="50" relative="1" as="geometry">
            <mxPoint x="1310" y="560" as="sourcePoint" />
            <mxPoint x="1360" y="510" as="targetPoint" />
          </mxGeometry>
        </mxCell>
        <mxCell id="I5j3_8j3GP6viw84mAff-21" value="" style="endArrow=none;html=1;fillColor=#d5e8d4;strokeColor=#82b366;entryX=0;entryY=0.5;entryDx=0;entryDy=0;exitX=1;exitY=1;exitDx=0;exitDy=0;" edge="1" parent="1" source="I5j3_8j3GP6viw84mAff-13" target="I5j3_8j3GP6viw84mAff-12">
          <mxGeometry width="50" height="50" relative="1" as="geometry">
            <mxPoint x="1330" y="580" as="sourcePoint" />
            <mxPoint x="1380" y="530" as="targetPoint" />
          </mxGeometry>
        </mxCell>
        <mxCell id="I5j3_8j3GP6viw84mAff-22" value="直播" style="ellipse;whiteSpace=wrap;html=1;shadow=0;fontFamily=Helvetica;fontSize=30;align=center;strokeColor=#d79b00;strokeWidth=6;fillColor=#ffe6cc;fontStyle=1;" vertex="1" parent="1">
          <mxGeometry x="1830" y="700" width="140" height="136.5" as="geometry" />
        </mxCell>
        <mxCell id="I5j3_8j3GP6viw84mAff-23" value="老师" style="ellipse;whiteSpace=wrap;html=1;shadow=0;fontFamily=Helvetica;fontSize=20;align=center;strokeWidth=3;fillColor=#ffe6cc;strokeColor=#d79b00;" vertex="1" parent="1">
          <mxGeometry x="1770" y="585" width="100" height="100" as="geometry" />
        </mxCell>
        <mxCell id="I5j3_8j3GP6viw84mAff-24" value="班期" style="ellipse;whiteSpace=wrap;html=1;shadow=0;fontFamily=Helvetica;fontSize=20;align=center;strokeWidth=3;fillColor=#ffe6cc;strokeColor=#d79b00;" vertex="1" parent="1">
          <mxGeometry x="1920" y="568.25" width="100" height="100" as="geometry" />
        </mxCell>
        <mxCell id="I5j3_8j3GP6viw84mAff-25" value="课堂" style="ellipse;whiteSpace=wrap;html=1;shadow=0;fontFamily=Helvetica;fontSize=20;align=center;strokeWidth=3;fillColor=#ffe6cc;strokeColor=#d79b00;" vertex="1" parent="1">
          <mxGeometry x="2018" y="650" width="100" height="100" as="geometry" />
        </mxCell>
        <mxCell id="I5j3_8j3GP6viw84mAff-26" value="直播设定&lt;br&gt;信息" style="ellipse;whiteSpace=wrap;html=1;shadow=0;fontFamily=Helvetica;fontSize=20;align=center;strokeWidth=3;fillColor=#ffe6cc;strokeColor=#d79b00;" vertex="1" parent="1">
          <mxGeometry x="2018" y="770" width="100" height="100" as="geometry" />
        </mxCell>
        <mxCell id="I5j3_8j3GP6viw84mAff-27" value="" style="endArrow=none;html=1;fillColor=#ffe6cc;strokeColor=#d79b00;entryX=0.5;entryY=1;entryDx=0;entryDy=0;exitX=0;exitY=0;exitDx=0;exitDy=0;" edge="1" parent="1" source="I5j3_8j3GP6viw84mAff-22" target="I5j3_8j3GP6viw84mAff-23">
          <mxGeometry width="50" height="50" relative="1" as="geometry">
            <mxPoint x="1550" y="810" as="sourcePoint" />
            <mxPoint x="1600" y="760" as="targetPoint" />
          </mxGeometry>
        </mxCell>
        <mxCell id="I5j3_8j3GP6viw84mAff-28" value="" style="endArrow=none;html=1;fillColor=#ffe6cc;strokeColor=#d79b00;entryX=0;entryY=1;entryDx=0;entryDy=0;exitX=0.5;exitY=0;exitDx=0;exitDy=0;" edge="1" parent="1" source="I5j3_8j3GP6viw84mAff-22" target="I5j3_8j3GP6viw84mAff-24">
          <mxGeometry width="50" height="50" relative="1" as="geometry">
            <mxPoint x="1560" y="820" as="sourcePoint" />
            <mxPoint x="1610" y="770" as="targetPoint" />
          </mxGeometry>
        </mxCell>
        <mxCell id="I5j3_8j3GP6viw84mAff-29" value="" style="endArrow=none;html=1;fillColor=#ffe6cc;strokeColor=#d79b00;entryX=0;entryY=0.5;entryDx=0;entryDy=0;exitX=1;exitY=0;exitDx=0;exitDy=0;" edge="1" parent="1" source="I5j3_8j3GP6viw84mAff-22" target="I5j3_8j3GP6viw84mAff-25">
          <mxGeometry width="50" height="50" relative="1" as="geometry">
            <mxPoint x="1570" y="830" as="sourcePoint" />
            <mxPoint x="1620" y="780" as="targetPoint" />
          </mxGeometry>
        </mxCell>
        <mxCell id="I5j3_8j3GP6viw84mAff-30" value="" style="endArrow=none;html=1;fillColor=#ffe6cc;strokeColor=#d79b00;entryX=0;entryY=0;entryDx=0;entryDy=0;exitX=1;exitY=0.5;exitDx=0;exitDy=0;" edge="1" parent="1" source="I5j3_8j3GP6viw84mAff-22" target="I5j3_8j3GP6viw84mAff-26">
          <mxGeometry width="50" height="50" relative="1" as="geometry">
            <mxPoint x="1580" y="840" as="sourcePoint" />
            <mxPoint x="1630" y="790" as="targetPoint" />
          </mxGeometry>
        </mxCell>
        <mxCell id="I5j3_8j3GP6viw84mAff-31" value="" style="endArrow=none;html=1;entryX=0;entryY=0.5;entryDx=0;entryDy=0;exitX=1;exitY=0;exitDx=0;exitDy=0;fillColor=#ffe6cc;strokeColor=#d79b00;" edge="1" parent="1" source="I5j3_8j3GP6viw84mAff-1" target="I5j3_8j3GP6viw84mAff-22">
          <mxGeometry width="50" height="50" relative="1" as="geometry">
            <mxPoint x="1380" y="810" as="sourcePoint" />
            <mxPoint x="1480.4117877372069" y="676.4214061981415" as="targetPoint" />
          </mxGeometry>
        </mxCell>
        <mxCell id="I5j3_8j3GP6viw84mAff-32" value="用户中心" style="ellipse;whiteSpace=wrap;html=1;shadow=0;fontFamily=Helvetica;fontSize=30;align=center;strokeColor=#b85450;strokeWidth=6;fillColor=#f8cecc;fontStyle=1;" vertex="1" parent="1">
          <mxGeometry x="1770" y="918.25" width="140" height="136.5" as="geometry" />
        </mxCell>
        <mxCell id="I5j3_8j3GP6viw84mAff-33" value="基本信息" style="ellipse;whiteSpace=wrap;html=1;shadow=0;fontFamily=Helvetica;fontSize=20;align=center;strokeWidth=3;fillColor=#f8cecc;strokeColor=#b85450;" vertex="1" parent="1">
          <mxGeometry x="1960" y="880" width="100" height="100" as="geometry" />
        </mxCell>
        <mxCell id="I5j3_8j3GP6viw84mAff-34" value="类型" style="ellipse;whiteSpace=wrap;html=1;shadow=0;fontFamily=Helvetica;fontSize=20;align=center;strokeWidth=3;fillColor=#f8cecc;strokeColor=#b85450;" vertex="1" parent="1">
          <mxGeometry x="1950" y="1010" width="100" height="100" as="geometry" />
        </mxCell>
        <mxCell id="I5j3_8j3GP6viw84mAff-35" value="画像" style="ellipse;whiteSpace=wrap;html=1;shadow=0;fontFamily=Helvetica;fontSize=20;align=center;strokeWidth=3;fillColor=#f8cecc;strokeColor=#b85450;" vertex="1" parent="1">
          <mxGeometry x="1850" y="1090" width="100" height="100" as="geometry" />
        </mxCell>
        <mxCell id="I5j3_8j3GP6viw84mAff-36" value="" style="endArrow=none;html=1;fillColor=#f8cecc;strokeColor=#b85450;exitX=1;exitY=0.5;exitDx=0;exitDy=0;entryX=0;entryY=0;entryDx=0;entryDy=0;" edge="1" parent="1" source="I5j3_8j3GP6viw84mAff-1" target="I5j3_8j3GP6viw84mAff-32">
          <mxGeometry width="50" height="50" relative="1" as="geometry">
            <mxPoint x="1720" y="1000" as="sourcePoint" />
            <mxPoint x="1770" y="950" as="targetPoint" />
          </mxGeometry>
        </mxCell>
        <mxCell id="I5j3_8j3GP6viw84mAff-37" value="" style="endArrow=none;html=1;fillColor=#f8cecc;strokeColor=#b85450;entryX=0;entryY=0.5;entryDx=0;entryDy=0;exitX=1;exitY=0;exitDx=0;exitDy=0;" edge="1" parent="1" source="I5j3_8j3GP6viw84mAff-32" target="I5j3_8j3GP6viw84mAff-33">
          <mxGeometry width="50" height="50" relative="1" as="geometry">
            <mxPoint x="1730" y="1010" as="sourcePoint" />
            <mxPoint x="1780" y="960" as="targetPoint" />
          </mxGeometry>
        </mxCell>
        <mxCell id="I5j3_8j3GP6viw84mAff-38" value="" style="endArrow=none;html=1;fillColor=#f8cecc;strokeColor=#b85450;entryX=0;entryY=0;entryDx=0;entryDy=0;exitX=1;exitY=0.5;exitDx=0;exitDy=0;" edge="1" parent="1" source="I5j3_8j3GP6viw84mAff-32" target="I5j3_8j3GP6viw84mAff-34">
          <mxGeometry width="50" height="50" relative="1" as="geometry">
            <mxPoint x="1740" y="1020" as="sourcePoint" />
            <mxPoint x="1790" y="970" as="targetPoint" />
          </mxGeometry>
        </mxCell>
        <mxCell id="I5j3_8j3GP6viw84mAff-39" value="" style="endArrow=none;html=1;fillColor=#f8cecc;strokeColor=#b85450;entryX=0;entryY=0;entryDx=0;entryDy=0;exitX=0.5;exitY=1;exitDx=0;exitDy=0;" edge="1" parent="1" source="I5j3_8j3GP6viw84mAff-32" target="I5j3_8j3GP6viw84mAff-35">
          <mxGeometry width="50" height="50" relative="1" as="geometry">
            <mxPoint x="1830" y="1070" as="sourcePoint" />
            <mxPoint x="1800" y="980" as="targetPoint" />
          </mxGeometry>
        </mxCell>
      </root>
    </mxGraphModel>
  </diagram>
</mxfile>
